<?xml version="1.0" encoding="UTF-8"?>
<svg version="1.1" xmlns="http://www.w3.org/2000/svg" width="896" height="202">
<path d="M0 0 C295.68 0 591.36 0 896 0 C896 66.66 896 133.32 896 202 C600.32 202 304.64 202 0 202 C0 135.34 0 68.68 0 0 Z " fill="#FEFEFE" transform="translate(0,0)"/>
<path d="M0 0 C1.67449219 -0.00648811 1.67449219 -0.00648811 3.3828125 -0.0131073 C5.72922576 -0.01348664 8.07569985 0.00343611 10.421875 0.03686523 C13.99130471 0.08192149 17.55552241 0.05757686 21.125 0.02539062 C23.41668531 0.03361155 25.70836045 0.04584733 28 0.0625 C29.05445312 0.05349167 30.10890625 0.04448334 31.1953125 0.03520203 C38.64289571 0.19878011 44.23643607 2.02757439 50 6.89453125 C51.80627001 11.39110676 51.37216079 15.27961439 50 19.89453125 C45.48370237 25.40196207 38.74573555 26.82377958 32 27.89453125 C32.99 28.55453125 33.98 29.21453125 35 29.89453125 C35.1875 32.51953125 35.1875 32.51953125 35 34.89453125 C33.02 35.88453125 33.02 35.88453125 31 36.89453125 C31 39.53453125 31 42.17453125 31 44.89453125 C31.81154541 44.85263672 32.62309082 44.81074219 33.45922852 44.76757812 C37.15980861 44.60060685 40.85959637 44.49703377 44.5625 44.39453125 C45.83931641 44.3275 47.11613281 44.26046875 48.43164062 44.19140625 C49.67236328 44.165625 50.91308594 44.13984375 52.19140625 44.11328125 C53.32779541 44.07138672 54.46418457 44.02949219 55.63500977 43.98632812 C60.6929242 45.3514476 63.2364868 48.53126464 66 52.89453125 C66.94802096 56.27668336 66.96053984 59.46580261 66.90576172 62.96313477 C66.92416107 64.42568695 66.92416107 64.42568695 66.94293213 65.91778564 C66.97358443 69.1205734 66.95340504 72.32062534 66.9296875 75.5234375 C66.93440661 77.75968441 66.94120335 79.99592781 66.94998169 82.23216248 C66.96028221 86.91025102 66.94536437 91.58740165 66.91259766 96.26538086 C66.87269101 102.25361705 66.89570304 108.23965872 66.9376049 114.22781467 C66.96293073 118.84254927 66.95483573 123.45676562 66.93671036 128.07151604 C66.9320504 130.27906493 66.93773752 132.48666132 66.95406723 134.69415474 C66.97190305 137.78247384 66.94468036 140.86726523 66.90576172 143.95532227 C66.91993134 144.86201157 66.93410095 145.76870087 66.94869995 146.7028656 C66.83856262 151.4338819 66.17378721 154.35050704 63.00247192 157.9591217 C58.87561528 161.53044648 55.36660247 161.89374665 50.0546875 161.80029297 C49.18708801 161.8125592 48.31948853 161.82482544 47.42559814 161.83746338 C44.5743842 161.86812668 41.7262416 161.84793333 38.875 161.82421875 C36.88394592 161.82893799 34.89289579 161.83573485 32.90185547 161.84451294 C28.73561073 161.85481517 24.57041888 161.83989258 20.40429688 161.80712891 C15.07396642 161.76724402 9.74610304 161.79021749 4.41586304 161.83213615 C0.30637144 161.85747786 -3.80253887 161.8493596 -7.91204834 161.83124161 C-9.87677302 161.82658477 -11.84155113 161.83225783 -13.80621338 161.84859848 C-16.55711837 161.86645945 -19.30407541 161.83918148 -22.0546875 161.80029297 C-22.86008972 161.81446259 -23.66549194 161.8286322 -24.49530029 161.8432312 C-28.93381343 161.72746342 -31.60798433 160.8964681 -35.0014801 157.9591217 C-38.85157145 153.57816765 -39.00012919 149.60466044 -38.92163086 143.95532227 C-38.93550339 142.98203979 -38.94937592 142.00875732 -38.96366882 141.00598145 C-38.99944862 137.80260132 -38.98407871 134.60192551 -38.96484375 131.3984375 C-38.97210347 129.16315525 -38.98129309 126.92787851 -38.99232483 124.69261169 C-39.00713964 120.01275704 -38.99619099 115.33383643 -38.9675293 110.65405273 C-38.9332602 104.66682406 -38.96657849 98.68220422 -39.01973629 92.69519138 C-39.05259653 88.08039721 -39.04764381 83.46622235 -39.0315876 78.85136223 C-39.02877351 76.64462427 -39.03804518 74.43783562 -39.05979729 72.23120308 C-39.08494683 69.14028113 -39.05863176 66.05382092 -39.01928711 62.96313477 C-39.037052 62.0584697 -39.05481689 61.15380463 -39.07312012 60.22172546 C-38.94075283 54.88833099 -37.88905453 52.20668885 -34.14796448 48.32200623 C-30.59873829 45.04332122 -28.26554784 43.92277941 -23.3125 44.11328125 C-22.12011719 44.1390625 -20.92773438 44.16484375 -19.69921875 44.19140625 C-17.86810547 44.29195312 -17.86810547 44.29195312 -16 44.39453125 C-14.74832031 44.430625 -13.49664062 44.46671875 -12.20703125 44.50390625 C-9.13481568 44.59771436 -6.06903787 44.72884399 -3 44.89453125 C-3.1546875 42.97640625 -3.1546875 42.97640625 -3.3125 41.01953125 C-3.37050781 40.30023438 -3.42851563 39.5809375 -3.48828125 38.83984375 C-3.87393036 36.49933909 -3.87393036 36.49933909 -7 34.89453125 C-7.1875 32.26953125 -7.1875 32.26953125 -7 29.89453125 C-6.28972656 29.77335937 -5.57945313 29.6521875 -4.84765625 29.52734375 C-3.92855469 29.35976563 -3.00945312 29.1921875 -2.0625 29.01953125 C-1.14597656 28.85710938 -0.22945312 28.6946875 0.71484375 28.52734375 C1.46894531 28.31851563 2.22304687 28.1096875 3 27.89453125 C3.33 27.23453125 3.66 26.57453125 4 25.89453125 C2.44152344 25.99894531 2.44152344 25.99894531 0.8515625 26.10546875 C-6.84575497 26.47112827 -13.75970001 26.68052835 -20.296875 22 C-23.10478685 18.52875118 -23.21350212 15.34212577 -23.328125 10.9921875 C-19.25665633 1.49608558 -9.25610564 -0.15191987 0 0 Z " fill="#A7608D" transform="translate(69,24.10546875)"/>
<path d="M0 0 C1.63984529 0.00031732 3.27971127 0.01165397 4.91943359 0.03173828 C6.21365738 0.03598312 6.21365738 0.03598312 7.5340271 0.04031372 C10.29544829 0.05152746 13.05654759 0.07663394 15.81787109 0.10205078 C17.68765808 0.11207905 19.55745015 0.12120517 21.42724609 0.12939453 C26.01591218 0.15147066 30.60433702 0.18600844 35.19287109 0.22705078 C36.19287109 3.22705078 36.19287109 3.22705078 36.19287109 10.22705078 C27.28287109 10.22705078 18.37287109 10.22705078 9.19287109 10.22705078 C9.19287109 26.06705078 9.19287109 41.90705078 9.19287109 58.22705078 C15.71037109 57.83517578 22.22787109 57.44330078 28.94287109 57.03955078 C47.24809938 56.56341758 47.24809938 56.56341758 53.15136719 59.8984375 C57.29619184 64.14812068 59.2802842 69.25829447 61.2109375 74.79394531 C62.73868467 78.5795068 65.12242801 81.39535204 67.81787109 84.41455078 C68.61451172 85.35685547 69.41115234 86.29916016 70.23193359 87.27001953 C71.96707096 89.46251793 71.96707096 89.46251793 74.19287109 89.22705078 C74.52287109 88.56705078 74.85287109 87.90705078 75.19287109 87.22705078 C73.70787109 86.73205078 73.70787109 86.73205078 72.19287109 86.22705078 C70.34184264 84.160855 68.63198717 82.10667887 66.94287109 79.91455078 C66.2152356 78.9791748 66.2152356 78.9791748 65.47290039 78.02490234 C54.19287109 63.2543712 54.19287109 63.2543712 54.19287109 58.22705078 C57.16287109 58.22705078 60.13287109 58.22705078 63.19287109 58.22705078 C63.19287109 42.38705078 63.19287109 26.54705078 63.19287109 10.22705078 C55.27287109 10.22705078 47.35287109 10.22705078 39.19287109 10.22705078 C38.86287109 6.92705078 38.53287109 3.62705078 38.19287109 0.22705078 C43.56802014 0.17769569 48.94303794 0.14135276 54.31835938 0.1171875 C56.14780982 0.10711594 57.97724412 0.09345802 59.80664062 0.07617188 C62.43282043 0.05197401 65.05878784 0.04057946 67.68505859 0.03173828 C68.50593964 0.02141571 69.32682068 0.01109314 70.1725769 0.00045776 C72.18076252 0.00005894 74.18842491 0.10455538 76.19287109 0.22705078 C78.80794024 2.84211993 78.43334711 4.6790365 78.45281982 8.23976135 C78.44720032 9.08191696 78.44158081 9.92407257 78.43579102 10.79174805 C78.43768936 11.67800873 78.43958771 12.56426941 78.44154358 13.47738647 C78.44525795 16.41616573 78.43453855 19.35469962 78.42333984 22.29345703 C78.4221484 24.32844514 78.42169481 26.3634338 78.42195129 28.39842224 C78.42038533 32.66644729 78.41208647 36.93438859 78.39868164 41.20239258 C78.38168088 46.6862059 78.37786753 52.16992718 78.37862682 57.65376377 C78.37835553 61.85634752 78.37288113 66.05891095 78.36562538 70.26148796 C78.36243282 72.28419783 78.36046994 74.30691001 78.35973167 76.32962227 C78.35757492 79.15037117 78.3488455 81.97102039 78.33813477 84.79174805 C78.33858795 85.63592789 78.33904114 86.48010773 78.33950806 87.34986877 C78.30734534 93.11257653 78.30734534 93.11257653 77.19287109 94.22705078 C74.67823266 94.33272427 72.19091894 94.37383301 69.67553711 94.37231445 C68.88856445 94.37567307 68.1015918 94.37903168 67.29077148 94.38249207 C64.67609094 94.39203058 62.06147423 94.39394662 59.44677734 94.39501953 C57.63695753 94.39823009 55.82713798 94.401594 54.01731873 94.40510559 C50.2183268 94.41110412 46.41935766 94.41294475 42.62036133 94.41235352 C37.74304337 94.41225185 32.86587084 94.42590538 27.98858738 94.44312572 C24.24919458 94.45422304 20.50983719 94.45627343 16.77042961 94.45574379 C14.97182654 94.45692729 13.17322265 94.46136963 11.3746357 94.46907616 C8.86285224 94.4788305 6.35138777 94.47601621 3.83959961 94.4699707 C3.09095139 94.47559021 2.34230316 94.48120972 1.57096863 94.48699951 C-3.5788133 94.45536638 -3.5788133 94.45536638 -5.80712891 92.22705078 C-6.00583944 89.37604894 -6.07980914 86.62216653 -6.06591797 83.77001953 C-6.06942261 82.89511871 -6.07292725 82.0202179 -6.07653809 81.11880493 C-6.08536427 78.21730695 -6.07950313 75.31605139 -6.07275391 72.41455078 C-6.0741003 70.40437778 -6.07604062 68.39420509 -6.07855225 66.3840332 C-6.08150471 62.16728623 -6.07720192 57.95062387 -6.06787109 53.73388672 C-6.05647651 48.31962855 -6.06303533 42.90556864 -6.07501602 37.49131775 C-6.08223131 33.33929949 -6.07994822 29.1873285 -6.07476044 25.03530884 C-6.07342302 23.03854346 -6.07507485 21.04177385 -6.07971954 19.04501343 C-6.08477933 16.25792008 -6.07708229 13.47115112 -6.06591797 10.68408203 C-6.06996643 9.85284821 -6.07401489 9.02161438 -6.07818604 8.16519165 C-6.02004032 0.35902511 -6.02004032 0.35902511 0 0 Z " fill="#FDFCFD" transform="translate(46.80712890625,79.77294921875)"/>
<path d="M0 0 C15.84 0 31.68 0 48 0 C48 13.53 48 27.06 48 41 C32.16 41 16.32 41 0 41 C0 27.47 0 13.94 0 0 Z " fill="#FEFDFE" transform="translate(59,94)"/>
<path d="M0 0 C4.98504944 3.6254905 8.73656411 7.71976924 11.25 13.375 C12.26487561 20.7328482 11.69535367 27.06712939 7.3203125 33.2421875 C3.2446405 37.80450691 -1.20715286 40.11817131 -7.25 41 C-13.23856596 41.28429639 -17.70765416 40.27657793 -22.23046875 36.2265625 C-27.64908448 30.39456784 -29.71384598 25.19067878 -29.5 17.23828125 C-28.68074691 9.90340593 -24.56692474 5.73158508 -19.125 1.25 C-13.67819286 -2.38120476 -6.02901242 -1.85508074 0 0 Z " fill="#FDFBFC" transform="translate(377.25,85)"/>
<path d="M0 0 C22 0 22 0 30 4 C34.43349844 8.77453678 35.41225811 11.94176948 35.34765625 18.328125 C34.61932075 23.92566973 31.56482677 27.69788137 27.32421875 31.2265625 C26.55722656 31.81179687 25.79023437 32.39703125 25 33 C25.77085937 34.03640625 26.54171875 35.0728125 27.3359375 36.140625 C28.34911974 37.51029729 29.36213166 38.88009557 30.375 40.25 C30.88289062 40.93191406 31.39078125 41.61382812 31.9140625 42.31640625 C32.40390625 42.98027344 32.89375 43.64414063 33.3984375 44.328125 C33.84880371 44.9355957 34.29916992 45.54306641 34.76318359 46.16894531 C36.03148164 48.04660725 37.03212696 49.95363985 38 52 C34.8671875 52.48828125 34.8671875 52.48828125 31 52 C28.5180522 49.73794274 26.87709256 47.03342689 25.125 44.1875 C24.6403125 43.44951172 24.155625 42.71152344 23.65625 41.95117188 C21.72423858 38.9695062 20.12857053 36.38571159 19 33 C14.71 33 10.42 33 6 33 C6 39.27 6 45.54 6 52 C4.02 52 2.04 52 0 52 C0 34.84 0 17.68 0 0 Z " fill="#A15585" transform="translate(621,79)"/>
<path d="M0 0 C22 0 22 0 30 4 C34.53407051 8.88284516 35.29910405 11.96353177 35.21484375 18.4609375 C34.80389905 23.31755668 33.0417707 26.08527451 29.4375 29.25 C28.633125 29.8275 27.82875 30.405 27 31 C26.34 31.66 25.68 32.32 25 33 C25.77085937 34.03640625 26.54171875 35.0728125 27.3359375 36.140625 C28.34911974 37.51029729 29.36213166 38.88009557 30.375 40.25 C30.88289063 40.93191406 31.39078125 41.61382812 31.9140625 42.31640625 C32.40390625 42.98027344 32.89375 43.64414063 33.3984375 44.328125 C33.84880371 44.9355957 34.29916992 45.54306641 34.76318359 46.16894531 C36.03148164 48.04660725 37.03212696 49.95363985 38 52 C34.8671875 52.48828125 34.8671875 52.48828125 31 52 C28.5180522 49.73794274 26.87709256 47.03342689 25.125 44.1875 C24.6403125 43.44951172 24.155625 42.71152344 23.65625 41.95117188 C21.72423858 38.9695062 20.12857053 36.38571159 19 33 C14.71 33 10.42 33 6 33 C6 39.27 6 45.54 6 52 C4.02 52 2.04 52 0 52 C0 34.84 0 17.68 0 0 Z " fill="#A15585" transform="translate(403,79)"/>
<path d="M0 0 C3.66639248 -0.11728126 7.3322952 -0.18760891 11 -0.25 C12.02996094 -0.28351563 13.05992187 -0.31703125 14.12109375 -0.3515625 C20.930349 -0.43830461 25.19660215 0.37960882 31 4 C34.34024036 7.31240502 36.27472336 11.28417629 36.5625 16 C36.23286235 20.52583589 34.64900874 24.33526704 32 28 C26.15616599 32.74811513 21.55891758 33.15161391 14.25 33.0625 C11.8575 33.041875 9.465 33.02125 7 33 C7 39.27 7 45.54 7 52 C5.02 52 3.04 52 1 52 C0 51 0 51 -0.12025452 48.94358826 C-0.11803391 48.03979935 -0.11581329 47.13601044 -0.11352539 46.20483398 C-0.11344986 45.18385117 -0.11337433 44.16286835 -0.11329651 43.11094666 C-0.10813522 42.0005452 -0.10297394 40.89014374 -0.09765625 39.74609375 C-0.0962413 38.61551041 -0.09482635 37.48492706 -0.09336853 36.32008362 C-0.08775019 32.69252935 -0.07519458 29.06503576 -0.0625 25.4375 C-0.05748736 22.98502693 -0.05292405 20.5325529 -0.04882812 18.08007812 C-0.0377748 12.05336455 -0.02101884 6.02668661 0 0 Z " fill="#A65E8C" transform="translate(539,79)"/>
<path d="M0 0 C1.98 0 3.96 0 6 0 C10.93617505 9.74168664 15.74927139 19.54155567 20.5 29.375 C21.04043945 30.48673584 21.58087891 31.59847168 22.13769531 32.74389648 C22.63881836 33.78489502 23.13994141 34.82589355 23.65625 35.8984375 C24.10806641 36.83349121 24.55988281 37.76854492 25.02539062 38.73193359 C26 41 26 41 26 43 C26.66 43 27.32 43 28 43 C28.32742188 41.865625 28.65484375 40.73125 28.9921875 39.5625 C31.34157689 32.51709256 34.74033794 25.9306512 38.00732422 19.27685547 C39.13460669 16.98042989 40.253479 14.68005012 41.37109375 12.37890625 C42.08285397 10.91903702 42.7950765 9.45939308 43.5078125 8 C43.84322052 7.31156006 44.17862854 6.62312012 44.52420044 5.91381836 C46.88312686 1.11687314 46.88312686 1.11687314 48 0 C49.98 0 51.96 0 54 0 C54 17.16 54 34.32 54 52 C52.02 52 50.04 52 48 52 C47.67 39.79 47.34 27.58 47 15 C44.9375 19.24875 42.875 23.4975 40.75 27.875 C40.10772461 29.1935498 39.46544922 30.51209961 38.80371094 31.87060547 C35.60394675 38.49015496 32.59498001 45.11913034 30 52 C28.02 52 26.04 52 24 52 C18.39 40.45 12.78 28.9 7 17 C6.67 28.55 6.34 40.1 6 52 C4.02 52 2.04 52 0 52 C0 34.84 0 17.68 0 0 Z " fill="#A15485" transform="translate(751,79)"/>
<path d="M0 0 C2.59765625 -0.12109375 2.59765625 -0.12109375 5 0 C9.82528041 10.30798976 14.61798881 20.63060161 19.36401367 30.9753418 C20.09068287 32.55742146 20.81891903 34.13878218 21.54858398 35.71948242 C22.61801244 38.03661676 23.68258782 40.35592382 24.74609375 42.67578125 C25.23812538 43.73808708 25.23812538 43.73808708 25.74009705 44.82185364 C28 49.77190067 28 49.77190067 28 52 C25.69 52 23.38 52 21 52 C20.3291288 50.3767313 19.66342971 48.75132422 19 47.125 C18.62875 46.22007813 18.2575 45.31515625 17.875 44.3828125 C17 42 17 42 17 40 C7.43 40.33 -2.14 40.66 -12 41 C-13.65 44.63 -15.3 48.26 -17 52 C-18.98 52 -20.96 52 -23 52 C-20.82265271 45.02389389 -18.08002945 38.49706331 -15 31.875 C-14.12433569 29.97686883 -13.24932061 28.07843799 -12.375 26.1796875 C-11.96378906 25.28781738 -11.55257813 24.39594727 -11.12890625 23.47705078 C-9.69876543 20.33902987 -8.34106838 17.17705485 -7 14 C-2.1232138 2.63278512 -2.1232138 2.63278512 0 0 Z " fill="#A45A89" transform="translate(483,79)"/>
<path d="M0 0 C6.49670016 3.35276133 10.5046401 8.44264171 13.5 15.00390625 C15.46609331 23.94069403 13.73308556 31.32057798 9.5 39.31640625 C4.06891457 45.92178042 -2.33965576 49.7431607 -10.8125 51.12890625 C-17.71364987 51.51230347 -23.31008828 49.19546965 -28.8125 45.12890625 C-35.26749556 39.16178826 -38.88857096 33.17668571 -39.25 24.25390625 C-39.01312003 16.00430368 -36.06155843 9.70214209 -30.52734375 3.6328125 C-21.64462402 -4.157272 -10.44590045 -4.68433348 0 0 Z M-30.5625 13.19140625 C-33.43511219 17.64395514 -33.38758899 23.0023987 -32.8125 28.12890625 C-30.98208304 34.83308402 -27.61987138 39.35092399 -21.8125 43.12890625 C-16.58922192 45.79858171 -11.39563213 45.55617311 -5.8125 44.12890625 C-0.53996536 41.6777123 3.98011494 38.44317092 6.53515625 33.109375 C8.55095316 26.98956043 8.97789027 21.04460357 6.3359375 15.08203125 C3.0883353 9.55889827 -0.55101873 5.0288774 -6.8125 3.12890625 C-17.67383517 1.91155136 -23.55276178 4.92992906 -30.5625 13.19140625 Z " fill="#A25686" transform="translate(380.8125,80.87109375)"/>
<path d="M0 0 C1.98 0 3.96 0 6 0 C6.12459983 5.22859225 6.21480498 10.45630019 6.2746582 15.68603516 C6.29963627 17.46092809 6.33363126 19.23571993 6.37719727 21.01025391 C6.83938649 40.33520088 6.83938649 40.33520088 1 48 C-3.19274322 52.19274322 -7.36876391 54.05971227 -13.25 54.4375 C-18.67205962 54.30172221 -22.73925401 52.27027197 -27 49 C-31.9660132 42.91663383 -32.14614339 37.91157961 -32.09765625 30.296875 C-32.0962413 29.45908508 -32.09482635 28.62129517 -32.09336853 27.75811768 C-32.08778197 25.08870843 -32.07523194 22.4193838 -32.0625 19.75 C-32.05748326 17.93750121 -32.05292066 16.12500111 -32.04882812 14.3125 C-32.03781694 9.87496752 -32.02056155 5.43749809 -32 1 C-30.02 1 -28.04 1 -26 1 C-25.970271 2.62627319 -25.970271 2.62627319 -25.93994141 4.28540039 C-25.86351235 8.33168634 -25.7748542 12.37763007 -25.68261719 16.42358398 C-25.64448087 18.17025973 -25.60960198 19.91700991 -25.578125 21.66381836 C-25.53213913 24.18370046 -25.47420253 26.7030769 -25.4140625 29.22265625 C-25.40251129 29.99585709 -25.39096008 30.76905792 -25.37905884 31.56568909 C-25.25008033 36.37074318 -24.64976347 40.46733491 -23 45 C-19.15313037 47.60229416 -14.51431992 47.58306285 -10 47 C-5.9773783 45.43564712 -4.40850891 44.61276337 -2 41 C-0.77504654 36.61853073 -0.78275339 32.15578723 -0.68359375 27.63671875 C-0.66281265 26.84473587 -0.64203156 26.05275299 -0.62062073 25.23677063 C-0.55552196 22.72043072 -0.49642577 20.20399128 -0.4375 17.6875 C-0.394277 15.97590139 -0.35066152 14.26431265 -0.30664062 12.55273438 C-0.19988153 8.36859016 -0.09850365 4.18434638 0 0 Z " fill="#A25787" transform="translate(736,78)"/>
<path d="M0 0 C9.9 0 19.8 0 30 0 C30 1.65 30 3.3 30 5 C22.41 5.33 14.82 5.66 7 6 C6.67 11.61 6.34 17.22 6 23 C12.27 23 18.54 23 25 23 C25 24.65 25 26.3 25 28 C19.06 28.33 13.12 28.66 7 29 C6.67 34.61 6.34 40.22 6 46 C14.25 46 22.5 46 31 46 C31 47.98 31 49.96 31 52 C20.77 52 10.54 52 0 52 C0 34.84 0 17.68 0 0 Z " fill="#A15585" transform="translate(814,79)"/>
<path d="M0 0 C9.9 0 19.8 0 30 0 C30 1.65 30 3.3 30 5 C22.41 5.33 14.82 5.66 7 6 C6.67 11.61 6.34 17.22 6 23 C12.27 23 18.54 23 25 23 C25 24.65 25 26.3 25 28 C19.06 28.33 13.12 28.66 7 29 C6.67 34.61 6.34 40.22 6 46 C14.25 46 22.5 46 31 46 C31 47.98 31 49.96 31 52 C20.77 52 10.54 52 0 52 C0 34.84 0 17.68 0 0 Z " fill="#A15585" transform="translate(582,79)"/>
<path d="M0 0 C-1.75 3.875 -1.75 3.875 -4 5 C-5.155 4.525625 -6.31 4.05125 -7.5 3.5625 C-13.04921542 1.39106788 -18.53932953 0.89401253 -24.2734375 2.7265625 C-29.99589283 5.34314988 -33.56266691 9.17518703 -36 15 C-36.90664248 22.37964806 -36.51261301 28.92207435 -32 35 C-27.40651799 40.03095648 -22.6562187 41.629654 -16 42 C-11.23889774 41.50234969 -7.22300801 40.23459617 -3 38 C-2.01 38.99 -1.02 39.98 0 41 C-1 44 -1 44 -2.75 45.1328125 C-10.46618748 48.53543684 -16.44393223 50.12437523 -24.625 47.375 C-32.77327807 44.02919867 -38.23311966 40.14935979 -42 32 C-44.75012497 24.17377372 -44.29942359 17.45639667 -40.9375 9.9375 C-37.23015893 3.0128687 -31.70920001 -2.1924375 -24.125 -4.5625 C-15.04104523 -6.43272598 -8.10332677 -4.05166338 0 0 Z " fill="#A25887" transform="translate(294,83)"/>
<path d="M0 0 C1.98 0 3.96 0 6 0 C18.49101965 26.8971032 18.49101965 26.8971032 23.03149414 37.54101562 C24.17004317 40.48723514 24.17004317 40.48723514 26 43 C26.22328476 42.4907901 26.44656952 41.9815802 26.67662048 41.4569397 C28.99563133 36.16861436 31.31535524 30.88060224 33.63549805 25.59277344 C34.50189302 23.61791927 35.36810465 21.64298466 36.23413086 19.66796875 C37.47722225 16.83312267 38.72096748 13.99856426 39.96484375 11.1640625 C40.35341049 10.27756012 40.74197723 9.39105774 41.14231873 8.47769165 C41.50261673 7.65699188 41.86291473 6.83629211 42.23413086 5.99072266 C42.55167831 5.26680328 42.86922577 4.54288391 43.19639587 3.79702759 C43.76840558 2.51789375 44.37336159 1.25327682 45 0 C46.98 0 48.96 0 51 0 C49.46769291 4.9123537 47.51608897 9.53086534 45.41015625 14.21484375 C45.06496445 14.98880997 44.71977264 15.76277618 44.36412048 16.56019592 C43.26621732 19.02048535 42.16450023 21.47904337 41.0625 23.9375 C39.96487284 26.3927377 38.86804008 28.84832832 37.77159119 31.30409241 C37.09126854 32.82713116 36.41013479 34.34980796 35.7280426 35.87205505 C34.2411938 39.19442418 32.76970265 42.52131095 31.34155273 45.86938477 C30.30060006 48.29852691 29.21838452 50.65695285 28 53 C26.35 53 24.7 53 23 53 C17.89122551 43.04612319 13.17398041 32.95314599 8.63598633 22.7277832 C7.54564878 20.27458571 6.44585719 17.8257615 5.34570312 15.37695312 C4.64786661 13.81014998 3.95057958 12.24310195 3.25390625 10.67578125 C2.92588516 9.94772781 2.59786407 9.21967438 2.25990295 8.46955872 C0.94199928 5.48027618 0 3.30442962 0 0 Z " fill="#A35887" transform="translate(179,78)"/>
<path d="M0 0 C9.9 0 19.8 0 30 0 C30 1.65 30 3.3 30 5 C22.08 5 14.16 5 6 5 C6 10.94 6 16.88 6 23 C12.6 23 19.2 23 26 23 C26 24.65 26 26.3 26 28 C19.4 28 12.8 28 6 28 C6 35.92 6 43.84 6 52 C4.02 52 2.04 52 0 52 C0 34.84 0 17.68 0 0 Z " fill="#A05384" transform="translate(666,79)"/>
<path d="M0 0 C16.0154603 -0.45326774 16.0154603 -0.45326774 21.875 4.625 C23.65362376 8.37987239 23.63975222 11.92884952 23 16 C21.09652042 19.57854162 19.7001061 20.69370358 16 22.3125 C10.77258064 23.53642532 5.32384755 23.11963702 0 23 C0 15.41 0 7.82 0 0 Z " fill="#FBF8FA" transform="translate(627,84)"/>
<path d="M0 0 C16.0154603 -0.45326774 16.0154603 -0.45326774 21.875 4.625 C23.65362376 8.37987239 23.63975222 11.92884952 23 16 C21.09652042 19.57854162 19.7001061 20.69370358 16 22.3125 C10.77258064 23.53642532 5.32384755 23.11963702 0 23 C0 15.41 0 7.82 0 0 Z " fill="#FBF8FA" transform="translate(409,84)"/>
<path d="M0 0 C11.55 0 23.1 0 35 0 C35 1.65 35 3.3 35 5 C30.38 5 25.76 5 21 5 C21 20.51 21 36.02 21 52 C19.02 52 17.04 52 15 52 C15 36.49 15 20.98 15 5 C10.05 5 5.1 5 0 5 C0 3.35 0 1.7 0 0 Z " fill="#A25787" transform="translate(300,79)"/>
<path d="M0 0 C14.70275591 -0.45472441 14.70275591 -0.45472441 20 3 C22.74814354 6.98924062 23.61349865 10.19426059 23 15 C21.78504751 17.67289548 20.81031577 19.42404026 18.40625 21.1328125 C14.88688817 22.40115394 11.43600942 22.20900949 7.75 22.125 C5.1925 22.08375 2.635 22.0425 0 22 C0 14.74 0 7.48 0 0 Z " fill="#FCF9FB" transform="translate(546,84)"/>
<path d="M0 0 C1.32 0.33 2.64 0.66 4 1 C4 30.7 4 60.4 4 91 C2.02 91.99 2.02 91.99 0 93 C0 62.31 0 31.62 0 0 Z " fill="#F2E8EE" transform="translate(34,81)"/>
<path d="M0 0 C0.66 0 1.32 0 2 0 C2 30.69 2 61.38 2 93 C0.68 92.34 -0.64 91.68 -2 91 C-2.04626791 79.43039963 -2.08184092 67.86082115 -2.10362434 56.29114723 C-2.1140774 50.91932542 -2.12826429 45.54756673 -2.15087891 40.17578125 C-2.17255311 34.99516552 -2.18455715 29.81461065 -2.18975449 24.63395309 C-2.19346002 22.65392473 -2.20069562 20.67389982 -2.21146011 18.69389725 C-2.22590302 15.92818154 -2.22798098 13.16271979 -2.22705078 10.39697266 C-2.23424133 9.57194748 -2.24143188 8.7469223 -2.24884033 7.89689636 C-2.22810432 2.22810432 -2.22810432 2.22810432 0 0 Z " fill="#F8F3F6" transform="translate(130,81)"/>
<path d="M0 0 C2.31 0 4.62 0 7 0 C7 17.16 7 34.32 7 52 C4.69 52 2.38 52 0 52 C0 34.84 0 17.68 0 0 Z " fill="#AA6691" transform="translate(236,79)"/>
<path d="M0 0 C26.4 0 52.8 0 80 0 C80.495 1.98 80.495 1.98 81 4 C53.94 4 26.88 4 -1 4 C-0.67 2.68 -0.34 1.36 0 0 Z " fill="#FEFEFE" transform="translate(43,178)"/>
<path d="M0 0 C1.98 0 3.96 0 6 0 C6 17.16 6 34.32 6 52 C4.02 52 2.04 52 0 52 C0 34.84 0 17.68 0 0 Z " fill="#A45A89" transform="translate(447,79)"/>
<path d="M0 0 C2.73685284 4.10527926 4.60113975 8.50956007 6.625 13 C7.04523438 13.91523437 7.46546875 14.83046875 7.8984375 15.7734375 C8.29546875 16.65257813 8.6925 17.53171875 9.1015625 18.4375 C9.46588379 19.24058594 9.83020508 20.04367188 10.20556641 20.87109375 C11 23 11 23 11 26 C3.74 26 -3.52 26 -11 26 C-8.99389364 19.98168092 -6.94115188 14.2629682 -4.375 8.5 C-4.06304687 7.78585938 -3.75109375 7.07171875 -3.4296875 6.3359375 C-1.13632015 1.13632015 -1.13632015 1.13632015 0 0 Z " fill="#FBF9FA" transform="translate(485,87)"/>
<path d="M0 0 C3.1875 -0.3125 3.1875 -0.3125 7 0 C9.875 2.4375 9.875 2.4375 12 5 C12.495 5.495 12.495 5.495 13 6 C13 9.3 13 12.6 13 16 C0.46 16 -12.08 16 -25 16 C-25.66 14.68 -26.32 13.36 -27 12 C-25.97845825 11.970271 -25.97845825 11.970271 -24.9362793 11.93994141 C-21.85296083 11.84473017 -18.77032351 11.73503534 -15.6875 11.625 C-14.61564453 11.5940625 -13.54378906 11.563125 -12.43945312 11.53125 C-10.89741211 11.47324219 -10.89741211 11.47324219 -9.32421875 11.4140625 C-7.9024231 11.36693115 -7.9024231 11.36693115 -6.4519043 11.31884766 C-3.7469731 11.1510949 -3.7469731 11.1510949 -1 9 C-0.42006301 6.80545319 -0.42006301 6.80545319 -0.3125 4.375 C-0.24675781 3.55773437 -0.18101563 2.74046875 -0.11328125 1.8984375 C-0.07589844 1.27195313 -0.03851563 0.64546875 0 0 Z " fill="#FCFAFC" transform="translate(69,61)"/>
<path d="M0 0 C0.04898438 0.62648437 0.09796875 1.25296875 0.1484375 1.8984375 C0.22320312 2.71570312 0.29796875 3.53296875 0.375 4.375 C0.44460937 5.18710938 0.51421875 5.99921875 0.5859375 6.8359375 C0.82892588 9.20334191 0.82892588 9.20334191 3 11 C5.52037964 11.37135915 5.52037964 11.37135915 8.4453125 11.4140625 C10.05986328 11.47207031 10.05986328 11.47207031 11.70703125 11.53125 C13.39892578 11.57765625 13.39892578 11.57765625 15.125 11.625 C16.82849609 11.68300781 16.82849609 11.68300781 18.56640625 11.7421875 C21.37743956 11.83667601 24.18846233 11.92223541 27 12 C26.67 13.32 26.34 14.64 26 16 C13.46 16 0.92 16 -12 16 C-12 5 -12 5 -9.9375 1.8125 C-6.36192987 -0.39370285 -4.12981363 -0.40488369 0 0 Z " fill="#FCFBFC" transform="translate(97,61)"/>
<path d="M0 0 C13.86 0 27.72 0 42 0 C42 1.98 42 3.96 42 6 C28.14 6 14.28 6 0 6 C0 4.02 0 2.04 0 0 Z " fill="#FBF7F9" transform="translate(62,34)"/>
<path d="M0 0 C2.74252444 -0.30417228 5.25552627 -0.42005798 8 -0.3984375 C8.79148437 -0.40130768 9.58296875 -0.40417786 10.3984375 -0.40713501 C12.07292394 -0.40917777 13.74743412 -0.40363307 15.421875 -0.39111328 C17.99012429 -0.37506172 20.55679986 -0.39095383 23.125 -0.41015625 C24.75000349 -0.40817385 26.37500599 -0.40433025 28 -0.3984375 C28.77085938 -0.40451019 29.54171875 -0.41058289 30.3359375 -0.4168396 C32.5 -0.38818359 32.5 -0.38818359 36 0 C36.66 0.99 37.32 1.98 38 3 C24.8 3 11.6 3 -2 3 C-1.34 2.01 -0.68 1.02 0 0 Z " fill="#F5EEF3" transform="translate(65,28)"/>
<path d="M0 0 C12.54 0 25.08 0 38 0 C38 0.99 38 1.98 38 3 C25.79 3 13.58 3 1 3 C0.67 2.01 0.34 1.02 0 0 Z " fill="#FEFDFE" transform="translate(64,44)"/>
<path d="M0 0 C2.97 0 5.94 0 9 0 C9 1.98 9 3.96 9 6 C6.03 6 3.06 6 0 6 C0 4.02 0 2.04 0 0 Z " fill="#F3EAF0" transform="translate(107,34)"/>
<path d="M0 0 C2.97 0 5.94 0 9 0 C9 1.98 9 3.96 9 6 C6.03 6 3.06 6 0 6 C0 4.02 0 2.04 0 0 Z " fill="#F3EAF0" transform="translate(50,34)"/>
<path d="M0 0 C2.4375 0.1875 2.4375 0.1875 3.4375 1.1875 C3.5625 3.6875 3.5625 3.6875 3.4375 6.1875 C2.4375 7.1875 2.4375 7.1875 -0.625 7.25 C-1.594375 7.229375 -2.56375 7.20875 -3.5625 7.1875 C-4.1875 4.8125 -4.1875 4.8125 -4.5625 2.1875 C-2.5625 0.1875 -2.5625 0.1875 0 0 Z " fill="#F7F1F5" transform="translate(83.5625,55.8125)"/>
<path d="M0 0 C0.33 0 0.66 0 1 0 C1 12.54 1 25.08 1 38 C0.67 38 0.34 38 0 38 C-0.33 27.44 -0.66 16.88 -1 6 C-1.99 6.495 -1.99 6.495 -3 7 C-1.125 1.125 -1.125 1.125 0 0 Z " fill="#E5D0DD" transform="translate(798,93)"/>
<path d="M0 0 C2.31 0 4.62 0 7 0 C5.02579865 2.52259061 4.03254358 2.9929808 0.8125 3.6875 C-0.5796875 3.8421875 -0.5796875 3.8421875 -2 4 C-1.34 2.68 -0.68 1.36 0 0 Z " fill="#E9D7E3" transform="translate(107,43)"/>
<path d="M0 0 C2.31 0 4.62 0 7 0 C7.33 1.32 7.66 2.64 8 4 C2.25 3.125 2.25 3.125 0 2 C0 1.34 0 0.68 0 0 Z " fill="#E9D7E3" transform="translate(53,43)"/>
<path d="M0 0 C0.66 0.33 1.32 0.66 2 1 C1.67 2.65 1.34 4.3 1 6 C0.01 6 -0.98 6 -2 6 C-2.66 5.01 -3.32 4.02 -4 3 C-2.68 2.01 -1.36 1.02 0 0 Z " fill="#EDDFE8" transform="translate(39,174)"/>
<path d="M0 0 C1.32 1.32 2.64 2.64 4 4 C2.35 4.66 0.7 5.32 -1 6 C-1.33 5.01 -1.66 4.02 -2 3 C-1.34 2.01 -0.68 1.02 0 0 Z " fill="#F1E6ED" transform="translate(127,74)"/>
<path d="M0 0 C2.0625 0.4375 2.0625 0.4375 4 1 C4 1.99 4 2.98 4 4 C3.01 4.66 2.02 5.32 1 6 C0.34 4.35 -0.32 2.7 -1 1 C-0.67 0.67 -0.34 0.34 0 0 Z " fill="#F3E9EF" transform="translate(126,175)"/>
<path d="M0 0 C0.99 0.99 1.98 1.98 3 3 C2.67 3.99 2.34 4.98 2 6 C0.68 5.67 -0.64 5.34 -2 5 C-1.125 1.125 -1.125 1.125 0 0 Z " fill="#F1E7EE" transform="translate(38,74)"/>
</svg>
